<?xml version="1.0" standalone="no"?>
<!DOCTYPE svg PUBLIC "-//W3C//DTD SVG 20010904//EN"
 "http://www.w3.org/TR/2001/REC-SVG-20010904/DTD/svg10.dtd">
<svg version="1.0" xmlns="http://www.w3.org/2000/svg"
 width="900.000000pt" height="342.000000pt" viewBox="0 0 900.000000 342.000000"
 preserveAspectRatio="xMidYMid meet">
<metadata>
Created by potrace 1.10, written by Peter Selinger 2001-2011
</metadata>
<g transform="translate(0.000000,342.000000) scale(0.100000,-0.100000)"
fill="#000000" stroke="none">
<path d="M5800 3270 c-48 -25 -92 -67 -118 -113 -17 -29 -22 -54 -22 -108 0
-100 37 -165 127 -220 28 -17 51 -22 112 -22 85 0 104 7 162 60 104 94 107
264 5 356 -73 66 -191 87 -266 47z"/>
<path d="M5493 2608 c-5 -7 -17 -33 -27 -58 -10 -25 -24 -58 -31 -75 -7 -16
-21 -50 -30 -75 -10 -25 -23 -58 -30 -75 -8 -16 -28 -66 -45 -110 -18 -44 -38
-93 -45 -110 -7 -16 -21 -50 -30 -75 -19 -49 -34 -86 -57 -140 -9 -19 -23 -55
-33 -80 -10 -25 -23 -58 -30 -75 -8 -16 -28 -66 -45 -110 -18 -44 -38 -93 -45
-110 -7 -16 -21 -50 -30 -75 -10 -25 -23 -58 -30 -75 -8 -16 -28 -66 -45 -110
-18 -44 -38 -93 -45 -110 -7 -16 -20 -47 -29 -68 -9 -21 -16 -44 -16 -52 0
-37 -42 -23 -61 20 -5 11 -18 34 -29 50 -11 17 -24 39 -30 50 -6 11 -19 34
-29 50 -11 17 -32 53 -46 80 -49 90 -34 85 -247 85 -179 0 -188 -1 -188 -19 0
-11 5 -23 11 -26 5 -4 15 -17 20 -28 5 -12 18 -35 29 -52 11 -16 24 -39 30
-50 6 -11 19 -33 30 -50 11 -16 24 -39 30 -50 6 -11 18 -32 28 -47 9 -15 71
-115 137 -223 66 -108 128 -208 137 -223 10 -15 21 -34 24 -42 21 -47 31 -50
170 -50 143 0 164 7 164 54 0 12 4 26 9 32 5 5 14 25 19 44 6 19 20 60 32 90
40 104 51 135 57 155 3 11 11 34 19 52 8 17 14 35 14 41 0 8 25 70 75 187 8
17 28 66 45 110 18 44 38 94 45 110 7 17 21 50 30 75 10 25 23 59 30 75 8 17
28 66 45 110 17 44 37 94 45 110 7 17 20 50 30 75 10 25 23 59 30 75 8 17 28
66 45 110 18 44 38 94 45 110 7 17 28 65 46 107 l32 78 1031 2 1031 3 3 158 3
157 -1145 0 c-903 0 -1146 -3 -1153 -12z"/>
<path d="M7940 1575 l0 -1045 163 2 162 3 3 1010 c1 556 0 1025 -3 1043 l-6
32 -159 0 -160 0 0 -1045z"/>
<path d="M234 2587 c-2 -7 -3 -71 -2 -143 l3 -129 220 -5 c121 -3 226 -9 233
-13 9 -6 12 -195 12 -886 0 -737 2 -880 14 -890 9 -8 59 -11 152 -9 l139 3 3
885 c1 596 5 888 13 895 6 6 98 12 232 15 l222 5 0 140 0 140 -618 3 c-502 2
-619 0 -623 -11z"/>
<path d="M5748 2119 c-17 -9 -18 -58 -18 -793 0 -656 2 -785 14 -795 9 -8 61
-11 162 -9 l149 3 3 794 c2 629 0 796 -10 803 -19 11 -280 9 -300 -3z"/>
<path d="M6840 1932 c-187 -13 -358 -111 -457 -263 -34 -52 -93 -173 -93 -192
0 -6 -7 -32 -16 -56 -11 -32 -15 -85 -15 -196 0 -175 16 -257 76 -380 132
-271 358 -394 645 -351 137 21 190 42 274 113 21 18 43 30 47 27 5 -3 9 -27 9
-55 l0 -49 149 0 c107 0 151 4 159 13 12 14 14 1308 2 1327 -6 9 -176 16 -297
11 -9 -1 -13 -17 -13 -45 0 -25 -5 -48 -10 -51 -6 -3 -29 9 -53 28 -37 30 -61
44 -130 79 -40 20 -212 45 -277 40z m273 -317 c98 -47 161 -123 211 -253 24
-63 22 -250 -3 -322 -36 -103 -67 -148 -134 -197 -68 -50 -136 -73 -217 -73
-171 0 -297 95 -362 275 -25 68 -25 259 -1 330 37 108 118 203 209 245 29 14
65 19 141 19 90 1 109 -2 156 -24z"/>
<path d="M1920 1914 c-211 -49 -361 -188 -443 -409 -63 -170 -63 -433 0 -600
70 -183 203 -318 378 -381 22 -8 84 -21 139 -29 162 -24 328 2 456 73 66 37
162 131 205 202 35 60 62 126 54 135 -3 3 -37 9 -75 15 -38 5 -100 15 -137 22
-74 13 -97 7 -107 -29 -11 -42 -63 -110 -108 -140 -66 -44 -161 -61 -239 -43
-89 19 -155 72 -201 160 -43 81 -74 248 -51 276 10 12 85 14 465 14 322 0 455
3 460 11 13 22 3 194 -16 264 -26 97 -40 132 -77 195 -80 138 -211 230 -374
265 -88 18 -251 18 -329 -1z m258 -206 c77 -19 134 -62 187 -143 30 -45 57
-129 53 -167 l-3 -33 -310 0 -310 0 -3 28 c-4 31 24 123 45 148 7 8 13 19 13
23 0 17 54 76 93 102 73 50 149 64 235 42z"/>
<path d="M3302 1914 c-208 -47 -381 -211 -444 -424 -70 -232 -58 -460 32 -645
42 -88 69 -124 147 -198 52 -50 65 -59 138 -95 119 -59 255 -78 423 -58 62 7
118 18 125 25 6 6 19 11 29 11 39 0 159 81 221 150 62 70 131 197 118 219 -4
6 -25 14 -47 17 -21 2 -80 12 -130 21 -50 9 -98 14 -107 10 -8 -3 -27 -30 -42
-59 -48 -96 -102 -138 -207 -158 -118 -24 -219 12 -289 102 -66 84 -101 186
-97 280 l3 63 465 5 465 5 -2 110 c-2 108 -20 201 -49 258 -8 16 -14 33 -14
38 0 21 -89 146 -132 185 -73 68 -163 115 -258 136 -77 16 -278 18 -348 2z
m270 -207 c27 -7 53 -18 60 -25 7 -7 17 -12 23 -12 21 -1 102 -104 124 -159 8
-20 15 -61 15 -91 l1 -55 -301 -3 c-256 -2 -303 0 -314 13 -9 11 -8 28 10 84
61 197 209 293 382 248z"/>
<path d="M8571 990 c-44 -25 -77 -56 -104 -100 -30 -48 -32 -190 -2 -235 52
-81 128 -125 216 -125 112 0 197 65 232 179 21 66 21 76 0 140 -18 58 -65 112
-123 141 -53 27 -170 27 -219 0z"/>
</g>
</svg>
